<?xml version="1.0" standalone="no"?>
<!DOCTYPE svg PUBLIC "-//W3C//DTD SVG 20010904//EN"
 "http://www.w3.org/TR/2001/REC-SVG-20010904/DTD/svg10.dtd">
<svg version="1.0" xmlns="http://www.w3.org/2000/svg"
 width="512.000000pt" height="512.000000pt" viewBox="0 0 512.000000 512.000000"
 preserveAspectRatio="xMidYMid meet">

<g transform="translate(0.000000,512.000000) scale(0.100000,-0.100000)"
fill="#fff" stroke="none">
<path d="M2480 4947 c-49 -16 -133 -102 -148 -153 -8 -27 -12 -122 -12 -280
l0 -239 -57 -30 c-121 -63 -231 -181 -287 -308 -43 -96 -56 -189 -56 -395 l0
-188 -47 -22 c-72 -32 -116 -74 -153 -143 -41 -78 -51 -170 -25 -239 24 -66
23 -73 -10 -80 -87 -19 -172 -88 -215 -175 l-25 -50 -3 -1242 -2 -1243 80 0
80 0 0 591 0 591 42 -63 c56 -84 196 -222 283 -280 286 -190 600 -243 932
-158 112 28 302 125 400 204 88 70 168 157 226 245 l37 55 0 -593 0 -592 80 0
80 0 -2 1243 -3 1242 -34 63 c-19 35 -51 77 -70 93 -42 34 -113 69 -140 69
-30 0 -34 16 -14 52 12 24 17 57 18 118 0 78 -3 90 -34 148 -38 71 -82 112
-153 144 l-48 22 0 188 c0 211 -13 302 -59 403 -59 127 -164 237 -288 303
l-53 27 0 239 c0 155 -4 253 -12 278 -17 59 -88 133 -145 152 -53 18 -112 19
-163 3z m135 -172 c16 -15 25 -36 25 -55 0 -19 -9 -40 -25 -55 -49 -50 -135
-15 -135 55 0 41 39 80 80 80 19 0 40 -9 55 -25z m25 -708 l0 -418 -25 -24
c-15 -16 -36 -25 -55 -25 -19 0 -40 9 -55 25 l-25 24 0 418 0 418 80 0 80 0 0
-418z m-320 -198 c0 -263 5 -284 75 -354 73 -74 151 -92 248 -59 57 19 128 93
145 152 8 25 12 119 12 261 0 135 4 221 10 221 5 0 38 -27 73 -60 200 -187
209 -483 20 -681 -183 -192 -479 -198 -674 -12 -200 191 -197 502 8 693 35 33
68 60 73 60 6 0 10 -86 10 -221z m-46 -759 c233 -117 502 -84 702 86 l64 55 0
-425 0 -424 -48 -7 c-146 -20 -272 -164 -272 -310 l0 -43 -62 20 c-71 22 -157
20 -219 -6 l-36 -15 -5 63 c-12 148 -125 269 -271 291 l-47 7 0 425 0 425 56
-51 c31 -27 93 -68 138 -91z m-354 -72 l-1 -143 -34 37 c-58 62 -59 150 -3
213 16 19 32 35 34 35 2 0 4 -64 4 -142z m1351 54 c6 -19 9 -52 6 -74 -5 -38
-49 -108 -68 -108 -5 0 -9 57 -9 137 l0 137 30 -29 c16 -15 35 -44 41 -63z
m-1448 -386 c104 -43 128 -175 47 -256 -66 -66 -156 -67 -221 -1 -124 123 13
325 174 257z m1601 0 c44 -18 86 -75 93 -124 20 -152 -160 -241 -268 -133
-124 124 13 325 175 257z m-1745 -452 c24 -8 61 -14 83 -14 21 0 38 -2 38 -5
0 -4 -8 -20 -17 -38 -16 -28 -19 -75 -23 -417 l-5 -385 -33 59 c-18 33 -43 88
-57 122 -50 126 -57 173 -62 448 -5 250 -5 259 13 251 11 -4 39 -14 63 -21z
m1838 -231 c-4 -226 -7 -268 -26 -337 -24 -87 -51 -151 -96 -236 l-30 -55 -5
380 c-4 334 -7 385 -22 419 -10 21 -18 40 -18 42 0 2 19 4 43 4 23 1 65 9 92
19 28 10 54 19 59 20 4 0 6 -115 3 -256z m-1374 203 c103 -43 128 -177 48
-257 -65 -65 -157 -65 -222 0 -124 123 13 325 174 257z m961 0 c44 -18 86 -75
93 -124 20 -152 -160 -241 -268 -133 -124 124 13 325 175 257z m-481 -320
c104 -43 128 -175 47 -256 -66 -66 -156 -67 -221 -1 -124 123 13 325 174 257z
m-624 -132 c70 -22 135 -16 224 21 16 7 17 -15 17 -384 0 -277 -3 -391 -11
-391 -24 0 -179 84 -242 131 l-67 51 0 300 c0 282 1 300 18 293 9 -4 37 -14
61 -21z m960 0 c70 -22 135 -16 224 21 16 7 17 -11 17 -293 l0 -300 -67 -51
c-63 -47 -218 -131 -242 -131 -8 0 -11 114 -11 391 0 369 1 391 18 384 9 -4
37 -14 61 -21z m-480 -320 c70 -22 135 -16 224 21 16 7 17 -9 17 -248 l0 -254
-46 -7 c-60 -8 -168 -8 -228 0 l-46 7 0 254 c0 239 1 255 18 248 9 -4 37 -14
61 -21z"/>
</g>
</svg>
